<svg id="Layer_1" enable-background="new 0 0 256 256" height="512" viewBox="0 0 256 256" width="512" xmlns="http://www.w3.org/2000/svg"><path d="m107.087 112.005c-2.237 1.489-4.92 2.36-7.809 2.36s-5.572-.871-7.809-2.36l-6.85 118.352h29.318z" fill="#e0ebfc"/><path d="m113.937 232.356h-29.318c-.55 0-1.077-.227-1.455-.627s-.574-.938-.542-1.488l6.85-118.352c.042-.715.462-1.354 1.104-1.674.641-.319 1.405-.273 2.001.125 1.99 1.325 4.307 2.025 6.7 2.025s4.711-.7 6.701-2.025c.597-.398 1.361-.444 2.001-.125.641.32 1.062.958 1.104 1.674l6.85 118.352c.032.55-.164 1.088-.542 1.488s-.904.627-1.454.627zm-27.199-4h25.08l-6.549-113.145c-3.786 1.52-8.195 1.52-11.982 0z" fill="#3762cc"/><circle cx="213.524" cy="76.304" fill="#f9a7a7" r="25.871"/><path d="m216.9 60h-7.075c-.555 0-1.03.4-1.125.947l-3.105 17.98c-.043.246.185.454.426.389l4.36-1.168c.236-.063.46.133.428.375l-2.008 15.426c-.084.644.801.905 1.081.32l11.54-24.134c.126-.264-.115-.554-.398-.478l-4.136 1.108c-.241.065-.469-.143-.426-.389l1.561-9.04c.122-.698-.415-1.336-1.123-1.336z" fill="#ffea92"/><path d="m125.491 248h-52.426c-2.227 0-4.033-1.806-4.033-4.033v-9.578c0-2.227 1.806-4.033 4.033-4.033h52.426c2.227 0 4.033 1.806 4.033 4.033v9.578c0 2.227-1.805 4.033-4.033 4.033z" fill="#a4c9ff"/><path d="m16.605 103.25c-1.657 0-3-1.343-3-3 0-47.24 38.433-85.672 85.672-85.672 1.657 0 3 1.343 3 3s-1.343 3-3 3c-43.932 0-79.672 35.741-79.672 79.672 0 1.657-1.343 3-3 3z" fill="#6bdddd"/><path d="m99.278 185.923c-1.657 0-3-1.343-3-3s1.343-3 3-3c43.932 0 79.673-35.741 79.673-79.672 0-1.657 1.343-3 3-3s3 1.343 3 3c0 47.239-38.433 85.672-85.673 85.672z" fill="#6bdddd"/><path d="m230.737 116.098h-34.427c-.925 0-1.675-.75-1.675-1.675v-5.11c0-.925.75-1.675 1.675-1.675h34.427c.925 0 1.675.75 1.675 1.675v5.11c.001.925-.749 1.675-1.675 1.675z" fill="#a4c9ff"/><path d="m205.33 107.638h-5.739v-13.643c0-1.585 1.285-2.869 2.869-2.869 1.585 0 2.869 1.285 2.869 2.869v13.643z" fill="#e0ebfc"/><path d="m227.456 107.638h-5.739v-13.643c0-1.585 1.285-2.869 2.869-2.869 1.585 0 2.869 1.285 2.869 2.869v13.643z" fill="#e0ebfc"/><path d="m196.855 116.098v10.122c0 9.206 7.463 16.669 16.669 16.669s16.669-7.463 16.669-16.669v-10.122z" fill="#a4c9ff"/><circle cx="99.278" cy="100.25" fill="#f9a7a7" r="14.115"/><path d="m99.278 107.188c-3.826 0-6.938-3.112-6.938-6.938s3.112-6.938 6.938-6.938 6.939 3.112 6.939 6.938c-.001 3.826-3.113 6.938-6.939 6.938z" fill="#ffea92"/><path d="m99.278 86.135c3.421 0 6.557 1.218 9 3.243 2.527-8.592 4.106-20.752 4.106-34.245.001-26.031-5.867-47.133-13.106-47.133s-13.107 21.102-13.107 47.133c0 13.494 1.579 25.653 4.106 34.245 2.444-2.024 5.58-3.243 9.001-3.243z" fill="#a4c9ff"/><path d="m99.278 116.365c-8.886 0-16.115-7.229-16.115-16.115s7.229-16.115 16.115-16.115 16.115 7.229 16.115 16.115-7.229 16.115-16.115 16.115zm0-28.229c-6.68 0-12.115 5.435-12.115 12.115s5.435 12.115 12.115 12.115 12.115-5.435 12.115-12.115-5.435-12.115-12.115-12.115z" fill="#3762cc"/><path d="m90.278 91.379c-.195 0-.392-.029-.584-.087-.644-.197-1.145-.703-1.335-1.349-2.7-9.181-4.188-21.543-4.188-34.81 0-24.416 5.189-49.133 15.107-49.133s15.107 24.717 15.107 49.133c0 13.265-1.487 25.627-4.188 34.81-.19.645-.691 1.152-1.335 1.348-.643.197-1.342.057-1.86-.373-2.165-1.794-4.908-2.783-7.724-2.783s-5.559.988-7.724 2.783c-.363.302-.816.461-1.276.461zm9-7.243c2.74 0 5.429.704 7.803 2.017 2.111-8.451 3.304-19.56 3.304-31.019 0-27.964-6.469-45.134-11.107-45.134s-11.107 17.17-11.107 45.133c0 11.46 1.193 22.57 3.304 31.019 2.374-1.313 5.062-2.016 7.803-2.016z" fill="#3762cc"/><path d="m99.278 109.188c-4.928 0-8.938-4.01-8.938-8.938 0-4.929 4.01-8.938 8.938-8.938 4.929 0 8.938 4.01 8.938 8.938 0 4.929-4.009 8.938-8.938 8.938zm0-13.876c-2.723 0-4.938 2.215-4.938 4.938s2.215 4.938 4.938 4.938 4.938-2.215 4.938-4.938-2.215-4.938-4.938-4.938z" fill="#3762cc"/><path d="m125.491 250h-52.426c-3.327 0-6.033-2.706-6.033-6.033v-9.578c0-3.327 2.706-6.033 6.033-6.033h52.426c3.327 0 6.033 2.706 6.033 6.033v9.578c0 3.327-2.706 6.033-6.033 6.033zm-52.426-17.644c-1.121 0-2.033.912-2.033 2.033v9.578c0 1.121.912 2.033 2.033 2.033h52.426c1.121 0 2.033-.912 2.033-2.033v-9.578c0-1.121-.912-2.033-2.033-2.033z" fill="#3762cc"/><path d="m85.163 100.25c0-1.335.198-2.621.544-3.844-8.501 2.256-19.241 6.822-30.308 13.211-22.544 13.016-37.885 28.649-34.265 34.917 3.619 6.269 24.828.8 47.372-12.216 10.609-6.125 19.622-12.83 25.815-18.866-5.346-2.009-9.158-7.153-9.158-13.202z" fill="#a4c9ff"/><path d="m143.157 109.617c-11.067-6.39-21.807-10.955-30.308-13.211.346 1.224.544 2.51.544 3.845 0 6.048-3.811 11.193-9.158 13.202 6.193 6.036 15.206 12.74 25.815 18.866 22.544 13.015 43.753 18.485 47.372 12.216s-11.722-21.902-34.265-34.918z" fill="#a4c9ff"/><path d="m28.045 149.122c-4.333 0-7.266-1.202-8.644-3.588-4.958-8.588 13.853-25.441 34.998-37.649 10.83-6.253 21.767-11.016 30.794-13.412.696-.184 1.435.018 1.939.53s.694 1.256.499 1.947c-.311 1.099-.468 2.209-.468 3.3 0 5.01 3.159 9.563 7.861 11.33.641.241 1.113.792 1.254 1.462.14.67-.071 1.365-.562 1.842-6.546 6.38-15.855 13.187-26.211 19.166-11.055 6.383-22.166 11.193-31.283 13.544-3.954 1.02-7.361 1.528-10.177 1.528zm55.153-49.912c-8.071 2.501-17.458 6.745-26.799 12.139-24.217 13.982-35.853 28.169-33.534 32.185.902 1.562 5.204 2.548 14.358.187 8.777-2.263 19.532-6.928 30.282-13.135 9.021-5.208 17.2-11.038 23.346-16.619-4.695-2.896-7.689-8.089-7.689-13.717.001-.345.013-.692.036-1.04z" fill="#3762cc"/><path d="m170.464 149.151c-10.064 0-26.453-6.463-41.414-15.101-10.355-5.979-19.664-12.785-26.211-19.166-.49-.478-.702-1.172-.562-1.842s.613-1.221 1.254-1.462c4.702-1.767 7.861-6.32 7.861-11.33 0-1.092-.157-2.203-.468-3.3-.196-.692-.005-1.435.499-1.947s1.243-.714 1.939-.53c9.028 2.396 19.965 7.16 30.794 13.413 21.145 12.208 39.956 29.061 34.998 37.649-1.45 2.511-4.529 3.616-8.69 3.616zm-62.76-35.183c6.146 5.58 14.326 11.41 23.346 16.618 24.218 13.982 42.322 16.963 44.64 12.948 2.319-4.016-9.317-18.203-33.534-32.185-9.342-5.394-18.728-9.638-26.799-12.139.023.347.035.694.035 1.041.001 5.627-2.994 10.821-7.688 13.717z" fill="#3762cc"/><path d="m149.182 153.154c-.768 0-1.536-.293-2.121-.879-1.172-1.172-1.172-3.071 0-4.243 26.347-26.347 26.347-69.217 0-95.564-1.171-1.172-1.171-3.071 0-4.243s3.072-1.171 4.242 0c28.687 28.687 28.687 75.363 0 104.049-.586.587-1.354.88-2.121.88z" fill="#6bdddd"/><path d="m49.375 153.154c-.768 0-1.536-.293-2.121-.879-28.687-28.687-28.687-75.363 0-104.049 1.171-1.172 3.071-1.172 4.242 0 1.172 1.172 1.172 3.071 0 4.243-26.347 26.347-26.347 69.217 0 95.564 1.171 1.172 1.171 3.071 0 4.243-.586.585-1.354.878-2.121.878z" fill="#6bdddd"/><path d="m213.524 142.889c-3.533 0-6.804-1.106-9.5-2.981v4.796c0 2.761 2.239 5 5 5h9c2.761 0 5-2.239 5-5v-4.796c-2.696 1.874-5.967 2.981-9.5 2.981z" fill="#a4c9ff"/><g fill="#3762cc"><path d="m230.737 118.098h-34.427c-2.026 0-3.675-1.648-3.675-3.675v-5.11c0-2.026 1.649-3.675 3.675-3.675h34.427c2.026 0 3.675 1.649 3.675 3.675v5.11c.001 2.026-1.648 3.675-3.675 3.675zm-34.102-4h33.777v-4.46h-33.777z"/><path d="m205.33 109.638h-5.738c-1.104 0-2-.896-2-2v-13.643c0-2.685 2.184-4.869 4.869-4.869s4.869 2.184 4.869 4.869v13.643c0 1.104-.895 2-2 2zm-3.738-4h1.738v-11.643c0-.479-.39-.869-.869-.869s-.869.39-.869.869z"/><path d="m227.456 109.638h-5.738c-1.104 0-2-.896-2-2v-13.643c0-2.685 2.184-4.869 4.869-4.869s4.869 2.184 4.869 4.869v13.643c0 1.104-.895 2-2 2zm-3.738-4h1.738v-11.643c0-.479-.39-.869-.869-.869s-.869.39-.869.869z"/><path d="m213.524 144.889c-10.294 0-18.669-8.375-18.669-18.669v-10.122c0-1.104.896-2 2-2h33.338c1.104 0 2 .896 2 2v10.122c0 10.294-8.375 18.669-18.669 18.669zm-14.669-26.791v8.122c0 8.088 6.581 14.669 14.669 14.669s14.669-6.581 14.669-14.669v-8.122z"/><path d="m218.024 151.703h-9c-3.86 0-7-3.14-7-7v-4.796c0-.745.414-1.428 1.074-1.772s1.456-.294 2.068.13c2.468 1.716 5.358 2.624 8.358 2.624s5.89-.907 8.358-2.624c.612-.425 1.409-.476 2.068-.13.66.345 1.074 1.028 1.074 1.772v4.796c0 3.86-3.14 7-7 7zm-12-8.389v1.389c0 1.654 1.346 3 3 3h9c1.654 0 3-1.346 3-3v-1.389c-4.7 2.073-10.3 2.073-15 0z"/></g><path d="m209.524 149.703v71.328c0 7.801-6.347 14.147-14.147 14.147h-65.852v8h65.852c12.212 0 22.147-9.935 22.147-22.147v-71.328z" fill="#6bdddd"/><path d="m195.376 245.178h-65.853c-1.104 0-2-.896-2-2v-8c0-1.104.896-2 2-2h65.853c6.698 0 12.147-5.449 12.147-12.147v-71.328c0-1.104.896-2 2-2h8c1.104 0 2 .896 2 2v71.328c.001 13.315-10.832 24.147-24.147 24.147zm-63.852-4h63.853c11.109 0 20.147-9.038 20.147-20.147v-69.328h-4v69.328c0 8.904-7.244 16.147-16.147 16.147h-63.853z" fill="#3762cc"/></svg>